HIERARCHY
ROOT pelvis
{
  OFFSET 0 100 0
  CHANNELS 6 Xposition Yposition Zposition Zrotation Xrotation Yrotation
  JOINT pelvis_right_femur
  {
    OFFSET -10.78128 -3.44521 -0.5502486
    CHANNELS 3 Zrotation Xrotation Yrotation
    JOINT right_femur_tibia
    {
      OFFSET -0.8047443 -44.0398 -0.1307829
      CHANNELS 3 Zrotation Xrotation Yrotation
      JOINT right_tibia_foot
      {
        OFFSET 3.006224 -47.83518 -5
        CHANNELS 3 Zrotation Xrotation Yrotation
        End Site
        {
          OFFSET 0 -5 15
        }
      }
    }
  }
  JOINT pelvis_left_femur
  {
    OFFSET 10.78128 -3.44521 -0.5502486
    CHANNELS 3 Zrotation Xrotation Yrotation
    JOINT left_femur_tibia
    {
      OFFSET 0.8047443 -44.0398 -0.1307829
      CHANNELS 3 Zrotation Xrotation Yrotation
      JOINT left_tibia_foot
      {
        OFFSET -4.370144 -48.10324 -4.275266
        CHANNELS 3 Zrotation Xrotation Yrotation
        End Site
        {
          OFFSET 0 -5 15
        }
      }
    }
  }
  JOINT pelvis_spine1
  {
    OFFSET 0 6.468898 -3.129235
    CHANNELS 3 Zrotation Xrotation Yrotation
    JOINT spine1
    {
      OFFSET 0 23.15396 4.99043
      CHANNELS 3 Zrotation Xrotation Yrotation
      JOINT spine2
      {
        OFFSET 0 20.79997 -5.064912
        CHANNELS 3 Zrotation Xrotation Yrotation
        JOINT neck
        {
          OFFSET 0 14.38658 9.616178
          CHANNELS 3 Zrotation Xrotation Yrotation
          End Site
          {
            OFFSET 0 20 0
          }
        }
      }
      JOINT right_manubrium
      {
        OFFSET -5.722621 16.35077 3.967754
        CHANNELS 3 Zrotation Xrotation Yrotation
        JOINT right_clavicle
        {
          OFFSET -13.16364 1.694482 -4.693211
          CHANNELS 3 Zrotation Xrotation Yrotation
          JOINT right_humerus
          {
            OFFSET -28.5034 -0.3100689 -2.792744
            CHANNELS 3 Zrotation Xrotation Yrotation
            JOINT right_radius
            {
              OFFSET -25.15693 0.02248979 -1.271978
              CHANNELS 3 Zrotation Xrotation Yrotation
              End Site
              {
                OFFSET -15 0 0
              }
            }
          }
        }
      }
      JOINT left_manubrium
      {
        OFFSET 5.722621 16.35077 3.967754
        CHANNELS 3 Zrotation Xrotation Yrotation
        JOINT left_clavicle
        {
          OFFSET 13.16364 1.694482 -4.693211
          CHANNELS 3 Zrotation Xrotation Yrotation
          JOINT left_humerus
          {
            OFFSET 29.39168 -1.063119 -2.237045
            CHANNELS 3 Zrotation Xrotation Yrotation
            JOINT left_radius
            {
              OFFSET 24.59957 -0.9528479 0.9047498
              CHANNELS 3 Zrotation Xrotation Yrotation
              End Site
              {
                OFFSET 15 -0 -0
              }
            }
          }
        }
      }
    }
  }
}
MOTION
Frames: 23
Frame Time: 0.0416666666667
38.01165 99.11595 253.4927 2.58001 -8.466705 -0.4317519 -1.052339 23.5103 7.834746 -0 21.77956 -0 7.469723 -13.37845 0.04003226 -1.134767 -24.58912 -5.803263 -0 26.75404 -0 -7.268653 -5.979555 19.30951 -1.429503 -0.8570422 10.14098 -2.112459 9.857939 -1.679846 2.649428 21.93239 4.925398 1.50852 -14.62834 7.509377 1.364381 -21.65296 11.1551 80.31584 21.39657 -4.917552 -0 0 27.27775 -26.336 13.88952 13.6607 4.25993 -13.33961 -3.062032 -94.11139 22.57123 26.64997 0 0 -8.687697 -3.536031 5.920603 17.63691
39.2823 99.07876 260.4484 2.778108 -8.541122 -0.2602686 -1.768845 22.62663 7.389172 -0 27.91679 -0 7.832774 -11.78272 -0.5883632 -2.411737 -22.01146 -6.796894 -0 26.01206 -0 -7.152274 -6.485641 18.80208 -1.774321 -1.19849 9.830641 -2.176347 9.573503 -1.734561 2.740837 22.08879 4.912649 1.353865 -14.53451 7.750284 1.488342 -21.05343 10.83515 80.86711 21.36927 -5.35481 -0 0 26.37815 -26.10103 13.81038 13.42251 4.074096 -12.9406 -3.086659 -93.65549 22.91248 26.17518 0 0 -8.234524 -3.554723 6.001181 17.79832
40.5489 99.47668 267.3511 3.009719 -8.788853 0.2302574 -2.252513 20.37724 6.717663 -0 34.47084 -0 7.922183 -10.21636 -1.578322 -3.705911 -18.32211 -7.689697 -0 25.77013 -0 -6.968146 -7.271378 18.24853 -2.139673 -1.3594 9.290477 -2.158086 9.393968 -1.903464 2.777585 22.3563 4.938339 1.174445 -14.37109 8.000343 1.770399 -20.19765 10.57865 81.73463 21.55406 -6.341326 -0 0 24.74979 -25.66588 13.81 12.98893 3.908909 -12.9096 -3.18775 -92.75913 23.32947 24.89973 0 0 -8.372099 -3.397703 6.180106 17.71693
41.77188 100.2721 274.0143 3.230679 -9.144887 1.062014 -2.451036 16.76709 5.872192 -0 40.56927 -0 7.732099 -8.92718 -2.788911 -4.8233 -13.80458 -8.399288 -0 25.50258 -0 -6.746926 -8.312487 17.66019 -2.463961 -1.295202 8.50419 -2.06123 9.280441 -2.205214 2.76012 22.71245 5.0006 0.9695069 -14.14178 8.256813 2.113071 -19.18137 10.36999 82.85878 21.8985 -7.740922 -0 0 22.64507 -25.05969 13.86127 12.41991 3.797666 -13.23275 -3.360084 -91.45514 23.78429 22.85544 0 0 -9.106866 -3.061106 6.458465 17.37753
42.93112 101.323 280.3252 3.387232 -9.481094 2.17372 -2.373101 11.9429 4.964235 -0 44.98492 -0 7.277225 -8.092245 -4.010447 -5.625255 -8.790277 -8.923518 -0 24.7702 -0 -6.541755 -9.501994 17.0247 -2.69216 -1.039106 7.488833 -1.883966 9.170746 -2.672046 2.710722 23.11807 5.088586 0.7512943 -13.85544 8.521188 2.376805 -18.1025 10.16292 84.16632 22.32874 -9.400603 -0 0 20.39233 -24.3279 13.92391 11.79723 3.78135 -13.84844 -3.592811 -89.82634 24.22456 20.13509 0 0 -10.40115 -2.555839 6.830573 16.78616
44.01553 102.4227 286.2565 3.46043 -9.697819 3.462054 -2.107512 6.211235 4.105474 -0 46.92406 -0 6.581972 -7.737479 -5.109083 -6.084151 -3.576721 -9.307584 -0 23.42943 -0 -6.38658 -10.75851 16.33263 -2.816301 -0.6624419 6.306305 -1.63231 9.016819 -3.303993 2.659801 23.53092 5.180673 0.5382216 -13.53247 8.786496 2.469539 -17.0187 9.92168 85.57935 22.77832 -11.20545 -0 0 18.21119 -23.51461 13.96489 11.17282 3.887493 -14.68336 -3.863342 -87.97595 24.59935 16.87879 0 0 -12.18395 -1.903913 7.284848 15.9631
45.01707 103.355 291.8729 3.491668 -9.716097 4.830873 -1.837362 0.1152454 3.377052 -0 46.02714 -0 5.690723 -7.722298 -6.043924 -6.276987 1.53582 -9.600735 -0 21.67635 -0 -6.288595 -12.05868 15.58455 -2.896105 -0.2744794 5.084675 -1.323862 8.784654 -4.054506 2.651498 23.89836 5.234871 0.3591299 -13.21315 9.028402 2.349274 -15.93999 9.620714 86.99853 23.18611 -13.07864 -0 0 16.18938 -22.66236 13.95557 10.55699 4.137319 -15.65571 -4.128764 -86.02766 24.87154 13.28633 0 0 -14.35923 -1.138422 7.808381 14.93527
45.93282 103.9305 297.3119 3.533871 -9.484558 6.20231 -1.725631 -5.761762 2.797726 -0 42.29451 -0 4.657709 -7.867913 -6.819856 -6.309693 6.286692 -9.83124 -0 19.84926 -0 -6.245021 -13.397 14.79243 -3.008294 0.02378601 3.963312 -0.981455 8.456902 -4.854 2.725082 24.17399 5.209062 0.2412244 -12.94135 9.218084 2.015424 -14.85879 9.252527 88.32552 23.50879 -14.95859 -0 0 14.33961 -21.80452 13.87573 9.938536 4.538651 -16.68818 -4.34195 -84.10404 25.0265 9.575594 0 0 -16.81292 -0.2947169 8.38718 13.73596
46.76449 104.0322 302.7219 3.595609 -9.038038 7.505044 -1.776682 -11.03119 2.326195 -0 36.38464 -0 3.524818 -8.10351 -7.467111 -6.253375 10.54204 -10.0046 -0 18.30061 -0 -6.25965 -14.72559 13.9939 -3.171015 0.2042565 3.024988 -0.629095 8.053251 -5.617528 2.879605 24.34867 5.093847 0.1892002 -12.74608 9.338351 1.539549 -13.78382 8.859453 89.5027 23.74298 -16.77731 -0 0 12.61745 -20.94509 13.72832 9.294285 5.05152 -17.72247 -4.473055 -82.31033 25.07004 5.952821 0 0 -19.38283 0.5957381 9.00099 12.4195
47.51335 103.6677 308.2144 3.655204 -8.495912 8.668264 -1.853464 -15.41509 1.912152 -0 29.60181 -0 2.319953 -8.462153 -8.035303 -6.14693 14.24563 -10.10999 -0 17.45554 -0 -6.344978 -15.93489 13.25877 -3.33894 0.2974729 2.312971 -0.2923657 7.628947 -6.233742 3.076792 24.44533 4.908275 0.1883222 -12.64891 9.379284 1.06166 -12.74768 8.531465 90.49986 23.91699 -18.44413 -0 0 10.9324 -20.05894 13.53497 8.586522 5.584424 -18.70495 -4.50556 -80.75256 25.02649 2.648462 0 0 -21.83147 1.49835 9.624286 11.0685
48.17741 102.9563 313.8635 3.682508 -7.981614 9.630301 -1.801351 -18.73982 1.561208 -0 23.1864 -0 1.069544 -8.959289 -8.560679 -5.996861 17.36661 -10.14287 -0 17.65295 -0 -6.50829 -16.8917 12.65791 -3.451024 0.3354352 1.828413 0.01156958 7.239833 -6.631352 3.277139 24.4974 4.676828 0.2212836 -12.65553 9.338722 0.6932475 -11.78944 8.333345 91.30584 24.06273 -19.87712 -0 0 9.23526 -19.12812 13.31512 7.79949 6.050954 -19.57882 -4.439882 -79.51484 24.93795 -0.1405182 0 0 -23.93262 2.375306 10.23489 9.767135
48.75497 102.0796 319.7298 3.629745 -7.594199 10.36326 -1.488305 -20.8785 1.383038 -0 18.10515 -0 -0.1798063 -9.488333 -9.031837 -5.75276 19.83492 -10.12724 -0 19.13394 -0 -6.750952 -17.40301 12.26811 -3.443077 0.3142593 1.514303 0.2752587 6.930216 -6.824056 3.458359 24.54612 4.417584 0.277424 -12.74538 9.221995 0.4679832 -10.95231 8.264225 91.92037 24.19868 -20.99592 -0 0 7.595799 -18.16757 13.07589 6.973185 6.389386 -20.25246 -4.297044 -78.68364 24.86419 -2.230494 0 0 -25.46026 3.17202 10.81412 8.608109
49.25024 101.2512 325.8697 3.44399 -7.419963 10.88899 -0.8046267 -21.69957 1.536844 -0 15.14809 -0 -1.363974 -9.872763 -9.398077 -5.331727 21.52392 -10.10578 -0 22.10135 -0 -7.067117 -17.23907 12.18047 -3.252758 0.211259 1.285912 0.4943657 6.738172 -6.873647 3.609646 24.63784 4.143556 0.351093 -12.88207 9.03784 0.3753201 -10.28614 8.286514 92.34086 24.33346 -21.70991 -0 0 6.164058 -17.21574 12.81763 6.184882 6.549533 -20.60955 -4.111144 -78.35677 24.87259 -3.431478 0 0 -26.17313 3.817702 11.3466 7.695522
49.67664 100.67 332.3041 3.135742 -7.504112 11.24727 0.2260176 -21.16955 2.045299 -0 14.41451 -0 -2.443058 -10.06363 -9.616408 -4.737671 22.27656 -10.08744 -0 26.5313 -0 -7.413049 -16.35248 12.45988 -2.881905 0.04900483 1.116334 0.6657461 6.682586 -6.823171 3.728259 24.79847 3.864371 0.4392835 -13.03488 8.797681 0.3938866 -9.838418 8.371346 92.54638 24.47299 -21.95741 -0 0 5.061613 -16.32236 12.53633 5.504023 6.511466 -20.60725 -3.917911 -78.56825 24.99904 -3.672337 0 0 -25.95705 4.261164 11.8272 7.09054
50.05962 100.4604 338.9539 2.805423 -7.863169 11.43877 1.399855 -19.33353 2.738589 -0 15.1496 -0 -3.41222 -10.21542 -9.664137 -4.123264 21.80564 -10.01512 -0 32.13887 -0 -7.678052 -14.93968 13.15795 -2.421976 -0.06327917 1.07421 0.7834555 6.768778 -6.672275 3.815655 25.03292 3.589849 0.5409647 -13.17927 8.516194 0.5037403 -9.678201 8.514484 92.47153 24.62306 -21.67918 -0 0 4.386745 -15.56361 12.21908 4.999562 6.282774 -20.29388 -3.758713 -79.29832 25.23741 -2.992716 0 0 -24.81206 4.464289 12.25621 6.816743
50.42851 100.6513 345.6338 2.566143 -8.480173 11.40921 2.46774 -16.30236 3.393742 -0 16.32841 -0 -4.280418 -10.53527 -9.536926 -3.671113 19.84194 -9.820108 -0 38.45261 -0 -7.752147 -13.28514 14.28383 -1.991066 -0.003131638 1.249575 0.8397341 6.986477 -6.402744 3.874385 25.33177 3.330716 0.6554952 -13.29902 8.209807 0.6835015 -9.866408 8.720757 92.05173 24.78321 -20.83463 -0 0 4.208694 -15.01827 11.85381 4.731147 5.893566 -19.75599 -3.665505 -80.50326 25.54858 -1.488671 0 0 -22.81392 4.407374 12.63447 6.868363
50.80109 101.1953 352.1425 2.461629 -9.251126 11.10647 3.267224 -12.30382 3.867756 -0 17.22688 -0 -5.042434 -11.0968 -9.241377 -3.436097 16.39547 -9.514689 -0 44.65659 -0 -7.613251 -11.63188 15.73187 -1.670025 0.2546845 1.6622 0.8256888 7.284421 -6.006498 3.905913 25.66414 3.101215 0.7800152 -13.39708 7.898596 0.8945269 -10.39824 8.980918 91.29702 24.9389 -19.45627 -0 0 4.533664 -14.73913 11.4422 4.731489 5.415447 -19.08212 -3.63261 -82.10608 25.86094 0.6906122 0 0 -20.15329 4.118172 12.9624 7.186956
51.1811 101.9703 358.3486 2.491296 -9.975415 10.55101 3.701286 -7.67072 4.087092 -0 17.33481 -0 -5.671455 -11.8488 -8.778782 -3.364066 11.70195 -9.191603 -0 49.4488 -0 -7.296428 -10.21028 17.29396 -1.513529 0.6423895 2.269669 0.7285043 7.565187 -5.483653 3.908636 25.97564 2.923687 0.9089755 -13.49415 7.609859 1.071507 -11.21736 9.266566 90.28237 25.06548 -17.63329 -0 0 5.333146 -14.77443 10.99471 5.026757 4.966818 -18.36559 -3.622151 -83.98701 26.08006 3.345726 0 0 -17.13125 3.667465 13.23981 7.663563
51.57156 102.7978 364.2109 2.627732 -10.48539 9.825879 3.766024 -2.72799 4.044461 -0 16.44357 -0 -6.151607 -12.70965 -8.152458 -3.361833 6.10917 -8.939055 -0 51.77757 -0 -6.848602 -9.158836 18.79326 -1.528718 1.069237 3.001954 0.5459046 7.748652 -4.850831 3.876474 26.21846 2.819459 1.035593 -13.61324 7.365769 1.155839 -12.2575 9.542997 89.09898 25.13987 -15.47282 -0 0 6.564527 -15.14683 10.52296 5.626515 4.645532 -17.67121 -3.595497 -86.0188 26.1318 6.287421 0 0 -14.01943 3.134488 13.46794 8.193808
51.9884 103.4825 369.7641 2.783261 -10.70674 9.012523 3.57505 2.216921 3.764176 -0 14.76753 -0 -6.505681 -13.61409 -7.374486 -3.285922 0.1119891 -8.790629 -0 51.14973 -0 -6.34127 -8.469436 20.14651 -1.639514 1.446567 3.75495 0.2978221 7.806807 -4.156805 3.792332 26.36181 2.810722 1.150552 -13.77724 7.17905 1.104118 -13.46123 9.767365 87.83645 25.14682 -13.09161 -0 0 8.187957 -15.84818 10.04 6.527628 4.501241 -17.01199 -3.519296 -88.07765 25.9759 9.36166 0 0 -11.00673 2.60348 13.6498 8.696291
52.46214 103.8444 375.104 2.829334 -10.61718 8.160673 3.297356 6.86113 3.258815 -0 12.78011 -0 -6.782008 -14.50177 -6.462491 -2.965375 -5.695731 -8.723659 -0 47.42049 -0 -5.868344 -8.051962 21.32082 -1.719704 1.69095 4.40298 0.01721795 7.746428 -3.470773 3.634039 26.38484 2.920467 1.244565 -14.00997 7.057656 0.8804513 -14.77555 9.890186 86.58352 25.08051 -10.6168 -0 0 10.16194 -16.85385 9.558023 7.719476 4.553332 -16.37206 -3.363815 -90.03883 25.59872 12.43425 0 0 -8.234174 2.163961 13.79035 9.102239
53.02772 103.7595 380.3508 2.71163 -10.24892 7.309254 3.033073 11.02372 2.559213 -0 10.94085 -0 -7.018463 -15.27797 -5.441269 -2.371699 -10.8761 -8.69813 -0 41.0631 -0 -5.480972 -7.81404 22.28574 -1.699701 1.764941 4.880067 -0.2700943 7.604394 -2.844128 3.406871 26.29066 3.146733 1.323564 -14.3218 7.002081 0.4891742 -16.13899 9.888719 85.42047 24.94359 -8.181536 -0 0 12.37822 -18.10101 9.07831 9.137394 4.773267 -15.75127 -3.130855 -91.80702 25.02277 15.39052 0 0 -5.771603 1.873487 13.89695 9.376817
53.71543 103.2235 385.6188 2.472274 -9.70285 6.491784 2.768231 14.6322 1.757924 -0 9.742399 -0 -7.240337 -15.74561 -4.344052 -1.701411 -15.10159 -8.728329 -0 33.37627 -0 -5.17382 -7.670447 22.97025 -1.596505 1.67392 5.194352 -0.5489673 7.456876 -2.309681 3.158719 26.11104 3.455079 1.41939 -14.71038 7.007162 -0.008573446 -17.45749 9.777433 84.44147 24.74534 -5.966304 -0 0 14.60167 -19.4706 8.598063 10.62987 5.072934 -15.18828 -2.863512 -93.303 24.30608 18.10458 0 0 -3.63537 1.764857 13.97883 9.513935
